<svg viewBox="0 0 1400 1000" xmlns="http://www.w3.org/2000/svg" font-family="Segoe UI, Arial, sans-serif">
  <!-- Background -->
  <rect width="1400" height="1000" fill="#0A1628"/>

  <!-- Title -->
  <text x="700" y="34" text-anchor="middle" fill="#C9A84C" font-size="20" font-weight="bold">Prime Capital Bank — Gold Layer Star Schema ERD</text>
  <text x="700" y="54" text-anchor="middle" fill="#5A8AAE" font-size="11">PK = Primary Key · FK = Foreign Key · SCD2 = Slowly Changing Dimension Type 2</text>

  <!-- ===================== HELPER MACROS (tables drawn individually) ===================== -->

  <!-- ============================================================
       FACT TABLES (centre — darker blue boxes)
       ============================================================ -->

  <!-- fact_transaction (centre-left) -->
  <g id="fact_transaction">
    <rect x="440" y="380" width="200" height="200" rx="6" fill="#0D1F3C" stroke="#C9A84C" stroke-width="2.5"/>
    <rect x="440" y="380" width="200" height="26" rx="6" fill="#1A3A6A"/>
    <rect x="440" y="397" width="200" height="9" fill="#1A3A6A"/>
    <text x="540" y="397" text-anchor="middle" fill="#C9A84C" font-size="11" font-weight="bold">fact_transaction</text>
    <text x="447" y="418" fill="#FFD700" font-size="9" font-weight="bold">PK</text>
    <text x="462" y="418" fill="#E0E8F0" font-size="9">transaction_sk</text>
    <line x1="440" y1="422" x2="640" y2="422" stroke="#1E3A5F" stroke-width="0.8"/>
    <text x="447" y="436" fill="#7EB8F7" font-size="9">FK</text>
    <text x="462" y="436" fill="#C0D4E8" font-size="9">customer_sk</text>
    <text x="447" y="449" fill="#7EB8F7" font-size="9">FK</text>
    <text x="462" y="449" fill="#C0D4E8" font-size="9">account_sk</text>
    <text x="447" y="462" fill="#7EB8F7" font-size="9">FK</text>
    <text x="462" y="462" fill="#C0D4E8" font-size="9">date_sk</text>
    <text x="447" y="475" fill="#7EB8F7" font-size="9">FK</text>
    <text x="462" y="475" fill="#C0D4E8" font-size="9">branch_sk</text>
    <text x="447" y="488" fill="#7EB8F7" font-size="9">FK</text>
    <text x="462" y="488" fill="#C0D4E8" font-size="9">channel_sk</text>
    <text x="447" y="501" fill="#7EB8F7" font-size="9">FK</text>
    <text x="462" y="501" fill="#C0D4E8" font-size="9">merchant_sk</text>
    <text x="447" y="514" fill="#7EB8F7" font-size="9">FK</text>
    <text x="462" y="514" fill="#C0D4E8" font-size="9">currency_sk</text>
    <line x1="440" y1="518" x2="640" y2="518" stroke="#1E3A5F" stroke-width="0.8"/>
    <text x="447" y="531" fill="#A0C4E8" font-size="9">transaction_amount</text>
    <text x="447" y="544" fill="#A0C4E8" font-size="9">transaction_type</text>
    <text x="447" y="557" fill="#A0C4E8" font-size="9">fraud_score</text>
    <text x="447" y="570" fill="#A0C4E8" font-size="9">row_count: ~2.1B</text>
  </g>

  <!-- fact_loan_portfolio (centre) -->
  <g id="fact_loan_portfolio">
    <rect x="660" y="380" width="200" height="200" rx="6" fill="#0D1F3C" stroke="#C9A84C" stroke-width="2.5"/>
    <rect x="660" y="380" width="200" height="26" rx="6" fill="#1A3A6A"/>
    <rect x="660" y="397" width="200" height="9" fill="#1A3A6A"/>
    <text x="760" y="397" text-anchor="middle" fill="#C9A84C" font-size="11" font-weight="bold">fact_loan_portfolio</text>
    <text x="667" y="418" fill="#FFD700" font-size="9" font-weight="bold">PK</text>
    <text x="682" y="418" fill="#E0E8F0" font-size="9">loan_portfolio_sk</text>
    <line x1="660" y1="422" x2="860" y2="422" stroke="#1E3A5F" stroke-width="0.8"/>
    <text x="667" y="436" fill="#7EB8F7" font-size="9">FK</text>
    <text x="682" y="436" fill="#C0D4E8" font-size="9">customer_sk</text>
    <text x="667" y="449" fill="#7EB8F7" font-size="9">FK</text>
    <text x="682" y="449" fill="#C0D4E8" font-size="9">account_sk</text>
    <text x="667" y="462" fill="#7EB8F7" font-size="9">FK</text>
    <text x="682" y="462" fill="#C0D4E8" font-size="9">product_sk</text>
    <text x="667" y="475" fill="#7EB8F7" font-size="9">FK</text>
    <text x="682" y="475" fill="#C0D4E8" font-size="9">date_sk</text>
    <text x="667" y="488" fill="#7EB8F7" font-size="9">FK</text>
    <text x="682" y="488" fill="#C0D4E8" font-size="9">risk_category_sk</text>
    <text x="667" y="501" fill="#7EB8F7" font-size="9">FK</text>
    <text x="682" y="501" fill="#C0D4E8" font-size="9">branch_sk</text>
    <text x="667" y="514" fill="#7EB8F7" font-size="9">FK</text>
    <text x="682" y="514" fill="#C0D4E8" font-size="9">geography_sk</text>
    <line x1="660" y1="518" x2="860" y2="518" stroke="#1E3A5F" stroke-width="0.8"/>
    <text x="667" y="531" fill="#A0C4E8" font-size="9">outstanding_balance</text>
    <text x="667" y="544" fill="#A0C4E8" font-size="9">pd_score · lgd_score</text>
    <text x="667" y="557" fill="#A0C4E8" font-size="9">ecl_provision_zar</text>
    <text x="667" y="570" fill="#A0C4E8" font-size="9">row_count: ~85M</text>
  </g>

  <!-- fact_account_balance (centre-right) -->
  <g id="fact_account_balance">
    <rect x="880" y="380" width="200" height="200" rx="6" fill="#0D1F3C" stroke="#C9A84C" stroke-width="2.5"/>
    <rect x="880" y="380" width="200" height="26" rx="6" fill="#1A3A6A"/>
    <rect x="880" y="397" width="200" height="9" fill="#1A3A6A"/>
    <text x="980" y="397" text-anchor="middle" fill="#C9A84C" font-size="11" font-weight="bold">fact_account_balance</text>
    <text x="887" y="418" fill="#FFD700" font-size="9" font-weight="bold">PK</text>
    <text x="902" y="418" fill="#E0E8F0" font-size="9">balance_sk</text>
    <line x1="880" y1="422" x2="1080" y2="422" stroke="#1E3A5F" stroke-width="0.8"/>
    <text x="887" y="436" fill="#7EB8F7" font-size="9">FK</text>
    <text x="902" y="436" fill="#C0D4E8" font-size="9">account_sk</text>
    <text x="887" y="449" fill="#7EB8F7" font-size="9">FK</text>
    <text x="902" y="449" fill="#C0D4E8" font-size="9">customer_sk</text>
    <text x="887" y="462" fill="#7EB8F7" font-size="9">FK</text>
    <text x="902" y="462" fill="#C0D4E8" font-size="9">date_sk</text>
    <text x="887" y="475" fill="#7EB8F7" font-size="9">FK</text>
    <text x="902" y="475" fill="#C0D4E8" font-size="9">product_sk</text>
    <text x="887" y="488" fill="#7EB8F7" font-size="9">FK</text>
    <text x="902" y="488" fill="#C0D4E8" font-size="9">currency_sk</text>
    <text x="887" y="501" fill="#7EB8F7" font-size="9">FK</text>
    <text x="902" y="501" fill="#C0D4E8" font-size="9">branch_sk</text>
    <line x1="880" y1="505" x2="1080" y2="505" stroke="#1E3A5F" stroke-width="0.8"/>
    <text x="887" y="518" fill="#A0C4E8" font-size="9">closing_balance_zar</text>
    <text x="887" y="531" fill="#A0C4E8" font-size="9">opening_balance_zar</text>
    <text x="887" y="544" fill="#A0C4E8" font-size="9">interest_accrued</text>
    <text x="887" y="557" fill="#A0C4E8" font-size="9">days_past_due</text>
    <text x="887" y="570" fill="#A0C4E8" font-size="9">row_count: ~730M</text>
  </g>

  <!-- ============================================================
       DIMENSION TABLES (surrounding — lighter blue boxes)
       ============================================================ -->

  <!-- dim_customer (top-left) -->
  <g id="dim_customer">
    <rect x="60" y="70" width="190" height="175" rx="6" fill="#0A1E38" stroke="#4A90C4" stroke-width="1.8"/>
    <rect x="60" y="70" width="190" height="24" rx="6" fill="#0E2E50"/>
    <rect x="60" y="84" width="190" height="10" fill="#0E2E50"/>
    <text x="155" y="86" text-anchor="middle" fill="#7EB8F7" font-size="11" font-weight="bold">dim_customer</text>
    <text x="66" y="106" fill="#FFD700" font-size="9" font-weight="bold">PK</text>
    <text x="81" y="106" fill="#E0E8F0" font-size="9">customer_sk</text>
    <line x1="60" y1="110" x2="250" y2="110" stroke="#1E3A5F" stroke-width="0.8"/>
    <text x="66" y="123" fill="#A0C4E8" font-size="9">customer_id (BK)</text>
    <text x="66" y="136" fill="#A0C4E8" font-size="9">full_name (masked)</text>
    <text x="66" y="149" fill="#A0C4E8" font-size="9">id_number (encrypted)</text>
    <text x="66" y="162" fill="#A0C4E8" font-size="9">customer_segment</text>
    <text x="66" y="175" fill="#A0C4E8" font-size="9">credit_rating</text>
    <text x="66" y="188" fill="#A0C4E8" font-size="9">scd2_effective_date</text>
    <text x="66" y="201" fill="#A0C4E8" font-size="9">scd2_expiry_date</text>
    <text x="66" y="214" fill="#C9A84C" font-size="8">SCD Type 2 · ~500K rows</text>
    <text x="66" y="226" fill="#5A8A5A" font-size="8">PII: id_number, full_name</text>
    <text x="66" y="238" fill="#5A8A8A" font-size="8">is_current_flag</text>
  </g>

  <!-- dim_account (top-centre-left) -->
  <g id="dim_account">
    <rect x="280" y="70" width="190" height="165" rx="6" fill="#0A1E38" stroke="#4A90C4" stroke-width="1.8"/>
    <rect x="280" y="70" width="190" height="24" rx="6" fill="#0E2E50"/>
    <rect x="280" y="84" width="190" height="10" fill="#0E2E50"/>
    <text x="375" y="86" text-anchor="middle" fill="#7EB8F7" font-size="11" font-weight="bold">dim_account</text>
    <text x="286" y="106" fill="#FFD700" font-size="9" font-weight="bold">PK</text>
    <text x="301" y="106" fill="#E0E8F0" font-size="9">account_sk</text>
    <line x1="280" y1="110" x2="470" y2="110" stroke="#1E3A5F" stroke-width="0.8"/>
    <text x="286" y="123" fill="#A0C4E8" font-size="9">account_number (BK)</text>
    <text x="286" y="136" fill="#A0C4E8" font-size="9">account_type</text>
    <text x="286" y="149" fill="#A0C4E8" font-size="9">account_status</text>
    <text x="286" y="162" fill="#A0C4E8" font-size="9">open_date</text>
    <text x="286" y="175" fill="#A0C4E8" font-size="9">credit_limit_zar</text>
    <text x="286" y="188" fill="#A0C4E8" font-size="9">interest_rate</text>
    <text x="286" y="201" fill="#A0C4E8" font-size="9">product_code</text>
    <text x="286" y="220" fill="#C9A84C" font-size="8">SCD Type 2 · ~1.8M rows</text>
  </g>

  <!-- dim_product (top-centre) -->
  <g id="dim_product">
    <rect x="500" y="70" width="190" height="155" rx="6" fill="#0A1E38" stroke="#4A90C4" stroke-width="1.8"/>
    <rect x="500" y="70" width="190" height="24" rx="6" fill="#0E2E50"/>
    <rect x="500" y="84" width="190" height="10" fill="#0E2E50"/>
    <text x="595" y="86" text-anchor="middle" fill="#7EB8F7" font-size="11" font-weight="bold">dim_product</text>
    <text x="506" y="106" fill="#FFD700" font-size="9" font-weight="bold">PK</text>
    <text x="521" y="106" fill="#E0E8F0" font-size="9">product_sk</text>
    <line x1="500" y1="110" x2="690" y2="110" stroke="#1E3A5F" stroke-width="0.8"/>
    <text x="506" y="123" fill="#A0C4E8" font-size="9">product_code (BK)</text>
    <text x="506" y="136" fill="#A0C4E8" font-size="9">product_name</text>
    <text x="506" y="149" fill="#A0C4E8" font-size="9">product_category</text>
    <text x="506" y="162" fill="#A0C4E8" font-size="9">product_family</text>
    <text x="506" y="175" fill="#A0C4E8" font-size="9">risk_weight</text>
    <text x="506" y="188" fill="#A0C4E8" font-size="9">regulatory_class</text>
    <text x="506" y="207" fill="#C9A84C" font-size="8">SCD Type 1 · ~850 rows</text>
  </g>

  <!-- dim_date (top-centre-right) -->
  <g id="dim_date">
    <rect x="720" y="70" width="190" height="155" rx="6" fill="#0A1E38" stroke="#4A90C4" stroke-width="1.8"/>
    <rect x="720" y="70" width="190" height="24" rx="6" fill="#0E2E50"/>
    <rect x="720" y="84" width="190" height="10" fill="#0E2E50"/>
    <text x="815" y="86" text-anchor="middle" fill="#7EB8F7" font-size="11" font-weight="bold">dim_date</text>
    <text x="726" y="106" fill="#FFD700" font-size="9" font-weight="bold">PK</text>
    <text x="741" y="106" fill="#E0E8F0" font-size="9">date_sk (YYYYMMDD)</text>
    <line x1="720" y1="110" x2="910" y2="110" stroke="#1E3A5F" stroke-width="0.8"/>
    <text x="726" y="123" fill="#A0C4E8" font-size="9">full_date</text>
    <text x="726" y="136" fill="#A0C4E8" font-size="9">day_of_week_name</text>
    <text x="726" y="149" fill="#A0C4E8" font-size="9">month_name · quarter</text>
    <text x="726" y="162" fill="#A0C4E8" font-size="9">fiscal_year · fiscal_month</text>
    <text x="726" y="175" fill="#A0C4E8" font-size="9">is_weekend · is_holiday</text>
    <text x="726" y="188" fill="#A0C4E8" font-size="9">is_business_day</text>
    <text x="726" y="207" fill="#C9A84C" font-size="8">Static · 10,957 rows (30yr)</text>
  </g>

  <!-- dim_branch (top-right) -->
  <g id="dim_branch">
    <rect x="940" y="70" width="190" height="165" rx="6" fill="#0A1E38" stroke="#4A90C4" stroke-width="1.8"/>
    <rect x="940" y="70" width="190" height="24" rx="6" fill="#0E2E50"/>
    <rect x="940" y="84" width="190" height="10" fill="#0E2E50"/>
    <text x="1035" y="86" text-anchor="middle" fill="#7EB8F7" font-size="11" font-weight="bold">dim_branch</text>
    <text x="946" y="106" fill="#FFD700" font-size="9" font-weight="bold">PK</text>
    <text x="961" y="106" fill="#E0E8F0" font-size="9">branch_sk</text>
    <line x1="940" y1="110" x2="1130" y2="110" stroke="#1E3A5F" stroke-width="0.8"/>
    <text x="946" y="123" fill="#A0C4E8" font-size="9">branch_code (BK)</text>
    <text x="946" y="136" fill="#A0C4E8" font-size="9">branch_name</text>
    <text x="946" y="149" fill="#A0C4E8" font-size="9">region · province</text>
    <text x="946" y="162" fill="#A0C4E8" font-size="9">branch_type</text>
    <text x="946" y="175" fill="#A0C4E8" font-size="9">manager_employee_sk</text>
    <text x="946" y="188" fill="#A0C4E8" font-size="9">atm_count</text>
    <text x="946" y="201" fill="#A0C4E8" font-size="9">latitude · longitude</text>
    <text x="946" y="220" fill="#C9A84C" font-size="8">SCD Type 2 · 200 rows</text>
  </g>

  <!-- dim_channel (far-right top) -->
  <g id="dim_channel">
    <rect x="1160" y="70" width="190" height="155" rx="6" fill="#0A1E38" stroke="#4A90C4" stroke-width="1.8"/>
    <rect x="1160" y="70" width="190" height="24" rx="6" fill="#0E2E50"/>
    <rect x="1160" y="84" width="190" height="10" fill="#0E2E50"/>
    <text x="1255" y="86" text-anchor="middle" fill="#7EB8F7" font-size="11" font-weight="bold">dim_channel</text>
    <text x="1166" y="106" fill="#FFD700" font-size="9" font-weight="bold">PK</text>
    <text x="1181" y="106" fill="#E0E8F0" font-size="9">channel_sk</text>
    <line x1="1160" y1="110" x2="1350" y2="110" stroke="#1E3A5F" stroke-width="0.8"/>
    <text x="1166" y="123" fill="#A0C4E8" font-size="9">channel_code (BK)</text>
    <text x="1166" y="136" fill="#A0C4E8" font-size="9">channel_name</text>
    <text x="1166" y="149" fill="#A0C4E8" font-size="9">channel_type</text>
    <text x="1166" y="162" fill="#A0C4E8" font-size="9">is_digital</text>
    <text x="1166" y="175" fill="#A0C4E8" font-size="9">platform</text>
    <text x="1166" y="188" fill="#A0C4E8" font-size="9">device_category</text>
    <text x="1166" y="207" fill="#C9A84C" font-size="8">Static · 18 rows</text>
  </g>

  <!-- dim_employee (left-middle) -->
  <g id="dim_employee">
    <rect x="60" y="300" width="190" height="165" rx="6" fill="#0A1E38" stroke="#4A90C4" stroke-width="1.8"/>
    <rect x="60" y="300" width="190" height="24" rx="6" fill="#0E2E50"/>
    <rect x="60" y="314" width="190" height="10" fill="#0E2E50"/>
    <text x="155" y="316" text-anchor="middle" fill="#7EB8F7" font-size="11" font-weight="bold">dim_employee</text>
    <text x="66" y="336" fill="#FFD700" font-size="9" font-weight="bold">PK</text>
    <text x="81" y="336" fill="#E0E8F0" font-size="9">employee_sk</text>
    <line x1="60" y1="340" x2="250" y2="340" stroke="#1E3A5F" stroke-width="0.8"/>
    <text x="66" y="353" fill="#A0C4E8" font-size="9">employee_id (BK)</text>
    <text x="66" y="366" fill="#A0C4E8" font-size="9">full_name (masked)</text>
    <text x="66" y="379" fill="#A0C4E8" font-size="9">job_title · department</text>
    <text x="66" y="392" fill="#A0C4E8" font-size="9">branch_sk</text>
    <text x="66" y="405" fill="#A0C4E8" font-size="9">employment_status</text>
    <text x="66" y="418" fill="#A0C4E8" font-size="9">hire_date</text>
    <text x="66" y="431" fill="#A0C4E8" font-size="9">scd2_effective_date</text>
    <text x="66" y="450" fill="#C9A84C" font-size="8">SCD Type 2 · ~12K rows</text>
    <text x="66" y="462" fill="#5A8A5A" font-size="8">PII: full_name masked</text>
  </g>

  <!-- dim_currency (left-lower) -->
  <g id="dim_currency">
    <rect x="60" y="520" width="190" height="155" rx="6" fill="#0A1E38" stroke="#4A90C4" stroke-width="1.8"/>
    <rect x="60" y="520" width="190" height="24" rx="6" fill="#0E2E50"/>
    <rect x="60" y="534" width="190" height="10" fill="#0E2E50"/>
    <text x="155" y="536" text-anchor="middle" fill="#7EB8F7" font-size="11" font-weight="bold">dim_currency</text>
    <text x="66" y="556" fill="#FFD700" font-size="9" font-weight="bold">PK</text>
    <text x="81" y="556" fill="#E0E8F0" font-size="9">currency_sk</text>
    <line x1="60" y1="560" x2="250" y2="560" stroke="#1E3A5F" stroke-width="0.8"/>
    <text x="66" y="573" fill="#A0C4E8" font-size="9">currency_code (ISO 4217)</text>
    <text x="66" y="586" fill="#A0C4E8" font-size="9">currency_name</text>
    <text x="66" y="599" fill="#A0C4E8" font-size="9">exchange_rate_to_zar</text>
    <text x="66" y="612" fill="#A0C4E8" font-size="9">rate_date</text>
    <text x="66" y="625" fill="#A0C4E8" font-size="9">is_base_currency</text>
    <text x="66" y="638" fill="#A0C4E8" font-size="9">decimal_places</text>
    <text x="66" y="657" fill="#C9A84C" font-size="8">Daily refresh · ~45 rows</text>
  </g>

  <!-- dim_risk_category (bottom-left) -->
  <g id="dim_risk_category">
    <rect x="280" y="650" width="190" height="165" rx="6" fill="#0A1E38" stroke="#4A90C4" stroke-width="1.8"/>
    <rect x="280" y="650" width="190" height="24" rx="6" fill="#0E2E50"/>
    <rect x="280" y="664" width="190" height="10" fill="#0E2E50"/>
    <text x="375" y="666" text-anchor="middle" fill="#7EB8F7" font-size="11" font-weight="bold">dim_risk_category</text>
    <text x="286" y="686" fill="#FFD700" font-size="9" font-weight="bold">PK</text>
    <text x="301" y="686" fill="#E0E8F0" font-size="9">risk_category_sk</text>
    <line x1="280" y1="690" x2="470" y2="690" stroke="#1E3A5F" stroke-width="0.8"/>
    <text x="286" y="703" fill="#A0C4E8" font-size="9">risk_code (BK)</text>
    <text x="286" y="716" fill="#A0C4E8" font-size="9">risk_name</text>
    <text x="286" y="729" fill="#A0C4E8" font-size="9">basel_asset_class</text>
    <text x="286" y="742" fill="#A0C4E8" font-size="9">ifrs9_stage (1/2/3)</text>
    <text x="286" y="755" fill="#A0C4E8" font-size="9">pd_band · lgd_band</text>
    <text x="286" y="768" fill="#A0C4E8" font-size="9">provision_rate</text>
    <text x="286" y="781" fill="#A0C4E8" font-size="9">regulatory_weight</text>
    <text x="286" y="800" fill="#C9A84C" font-size="8">Static · ~120 rows</text>
  </g>

  <!-- dim_geography (bottom-centre) -->
  <g id="dim_geography">
    <rect x="500" y="650" width="190" height="165" rx="6" fill="#0A1E38" stroke="#4A90C4" stroke-width="1.8"/>
    <rect x="500" y="650" width="190" height="24" rx="6" fill="#0E2E50"/>
    <rect x="500" y="664" width="190" height="10" fill="#0E2E50"/>
    <text x="595" y="666" text-anchor="middle" fill="#7EB8F7" font-size="11" font-weight="bold">dim_geography</text>
    <text x="506" y="686" fill="#FFD700" font-size="9" font-weight="bold">PK</text>
    <text x="521" y="686" fill="#E0E8F0" font-size="9">geography_sk</text>
    <line x1="500" y1="690" x2="690" y2="690" stroke="#1E3A5F" stroke-width="0.8"/>
    <text x="506" y="703" fill="#A0C4E8" font-size="9">postal_code (BK)</text>
    <text x="506" y="716" fill="#A0C4E8" font-size="9">suburb · city</text>
    <text x="506" y="729" fill="#A0C4E8" font-size="9">province</text>
    <text x="506" y="742" fill="#A0C4E8" font-size="9">country_code</text>
    <text x="506" y="755" fill="#A0C4E8" font-size="9">latitude · longitude</text>
    <text x="506" y="768" fill="#A0C4E8" font-size="9">metropolitan_area</text>
    <text x="506" y="781" fill="#A0C4E8" font-size="9">income_decile</text>
    <text x="506" y="800" fill="#C9A84C" font-size="8">Static · ~4,200 rows</text>
  </g>

  <!-- dim_merchant (bottom-centre-right) -->
  <g id="dim_merchant">
    <rect x="720" y="650" width="190" height="165" rx="6" fill="#0A1E38" stroke="#4A90C4" stroke-width="1.8"/>
    <rect x="720" y="650" width="190" height="24" rx="6" fill="#0E2E50"/>
    <rect x="720" y="664" width="190" height="10" fill="#0E2E50"/>
    <text x="815" y="666" text-anchor="middle" fill="#7EB8F7" font-size="11" font-weight="bold">dim_merchant</text>
    <text x="726" y="686" fill="#FFD700" font-size="9" font-weight="bold">PK</text>
    <text x="741" y="686" fill="#E0E8F0" font-size="9">merchant_sk</text>
    <line x1="720" y1="690" x2="910" y2="690" stroke="#1E3A5F" stroke-width="0.8"/>
    <text x="726" y="703" fill="#A0C4E8" font-size="9">merchant_id (BK)</text>
    <text x="726" y="716" fill="#A0C4E8" font-size="9">merchant_name</text>
    <text x="726" y="729" fill="#A0C4E8" font-size="9">mcc_code (ISO 18245)</text>
    <text x="726" y="742" fill="#A0C4E8" font-size="9">merchant_category</text>
    <text x="726" y="755" fill="#A0C4E8" font-size="9">country_code</text>
    <text x="726" y="768" fill="#A0C4E8" font-size="9">is_high_risk_mcc</text>
    <text x="726" y="781" fill="#A0C4E8" font-size="9">aml_risk_level</text>
    <text x="726" y="800" fill="#C9A84C" font-size="8">Monthly refresh · ~250K rows</text>
  </g>

  <!-- dim_risk_category right side -->
  <g id="dim_risk_cat_right">
    <rect x="940" y="650" width="190" height="155" rx="6" fill="#0A1E38" stroke="#4A90C4" stroke-width="1.8"/>
    <rect x="940" y="650" width="190" height="24" rx="6" fill="#0E2E50"/>
    <rect x="940" y="664" width="190" height="10" fill="#0E2E50"/>
    <text x="1035" y="666" text-anchor="middle" fill="#7EB8F7" font-size="11" font-weight="bold">dim_gl_account</text>
    <text x="946" y="686" fill="#FFD700" font-size="9" font-weight="bold">PK</text>
    <text x="961" y="686" fill="#E0E8F0" font-size="9">gl_account_sk</text>
    <line x1="940" y1="690" x2="1130" y2="690" stroke="#1E3A5F" stroke-width="0.8"/>
    <text x="946" y="703" fill="#A0C4E8" font-size="9">gl_account_code (BK)</text>
    <text x="946" y="716" fill="#A0C4E8" font-size="9">account_description</text>
    <text x="946" y="729" fill="#A0C4E8" font-size="9">account_type</text>
    <text x="946" y="742" fill="#A0C4E8" font-size="9">financial_statement</text>
    <text x="946" y="755" fill="#A0C4E8" font-size="9">ifrs_classification</text>
    <text x="946" y="768" fill="#A0C4E8" font-size="9">cost_centre</text>
    <text x="946" y="787" fill="#C9A84C" font-size="8">Static · ~18K rows</text>
  </g>

  <!-- ============================================================
       RELATIONSHIP LINES (facts → dimensions)
       ============================================================ -->

  <!-- fact_transaction → dim_customer -->
  <line x1="440" y1="436" x2="250" y2="158" stroke="#4A90C4" stroke-width="1.5" stroke-dasharray="5,3"/>
  <!-- crow foot at dim end -->
  <circle cx="250" cy="158" r="4" fill="none" stroke="#4A90C4" stroke-width="1.5"/>
  <line x1="440" y1="436" x2="445" y2="436" stroke="#4A90C4" stroke-width="2.5"/>

  <!-- fact_transaction → dim_account -->
  <line x1="440" y1="449" x2="470" y2="200" stroke="#4A90C4" stroke-width="1.5" stroke-dasharray="5,3"/>
  <circle cx="470" cy="200" r="4" fill="none" stroke="#4A90C4" stroke-width="1.5"/>

  <!-- fact_transaction → dim_date -->
  <line x1="540" y1="380" x2="815" y2="225" stroke="#4A90C4" stroke-width="1.5" stroke-dasharray="5,3"/>
  <circle cx="815" cy="225" r="4" fill="none" stroke="#4A90C4" stroke-width="1.5"/>

  <!-- fact_transaction → dim_branch -->
  <line x1="570" y1="380" x2="1035" y2="235" stroke="#4A90C4" stroke-width="1.5" stroke-dasharray="5,3"/>
  <circle cx="1035" cy="235" r="4" fill="none" stroke="#4A90C4" stroke-width="1.5"/>

  <!-- fact_transaction → dim_channel -->
  <line x1="620" y1="390" x2="1160" y2="188" stroke="#4A90C4" stroke-width="1.5" stroke-dasharray="5,3"/>
  <circle cx="1160" cy="188" r="4" fill="none" stroke="#4A90C4" stroke-width="1.5"/>

  <!-- fact_transaction → dim_merchant -->
  <line x1="540" y1="580" x2="815" y2="650" stroke="#4A90C4" stroke-width="1.5" stroke-dasharray="5,3"/>
  <circle cx="815" cy="650" r="4" fill="none" stroke="#4A90C4" stroke-width="1.5"/>

  <!-- fact_transaction → dim_currency -->
  <line x1="440" y1="514" x2="250" y2="598" stroke="#4A90C4" stroke-width="1.5" stroke-dasharray="5,3"/>
  <circle cx="250" cy="598" r="4" fill="none" stroke="#4A90C4" stroke-width="1.5"/>

  <!-- fact_loan_portfolio → dim_customer -->
  <line x1="660" y1="436" x2="250" y2="130" stroke="#5AA0D4" stroke-width="1.5" stroke-dasharray="4,4"/>
  <circle cx="250" cy="130" r="4" fill="none" stroke="#5AA0D4" stroke-width="1.5"/>

  <!-- fact_loan_portfolio → dim_product -->
  <line x1="760" y1="380" x2="595" y2="225" stroke="#5AA0D4" stroke-width="1.5" stroke-dasharray="4,4"/>
  <circle cx="595" cy="225" r="4" fill="none" stroke="#5AA0D4" stroke-width="1.5"/>

  <!-- fact_loan_portfolio → dim_risk_category -->
  <line x1="760" y1="580" x2="595" y2="650" stroke="#5AA0D4" stroke-width="1.5" stroke-dasharray="4,4"/>
  <circle cx="595" cy="650" r="4" fill="none" stroke="#5AA0D4" stroke-width="1.5"/>

  <!-- fact_loan_portfolio → dim_geography -->
  <line x1="710" y1="580" x2="595" y2="650" stroke="#5AA0D4" stroke-width="1.5" stroke-dasharray="4,4"/>
  <circle cx="595" cy="650" r="4" fill="none" stroke="#5AA0D4" stroke-width="1.5"/>

  <!-- fact_account_balance → dim_account -->
  <line x1="950" y1="436" x2="470" y2="188" stroke="#6AB0D4" stroke-width="1.5" stroke-dasharray="4,4"/>
  <circle cx="470" cy="188" r="4" fill="none" stroke="#6AB0D4" stroke-width="1.5"/>

  <!-- fact_account_balance → dim_product -->
  <line x1="950" y1="475" x2="690" y2="188" stroke="#6AB0D4" stroke-width="1.5" stroke-dasharray="4,4"/>
  <circle cx="690" cy="188" r="4" fill="none" stroke="#6AB0D4" stroke-width="1.5"/>

  <!-- fact_account_balance → dim_branch -->
  <line x1="1000" y1="380" x2="1035" y2="235" stroke="#6AB0D4" stroke-width="1.5" stroke-dasharray="4,4"/>
  <circle cx="1035" cy="235" r="4" fill="none" stroke="#6AB0D4" stroke-width="1.5"/>

  <!-- fact_account_balance → dim_gl_account -->
  <line x1="1000" y1="580" x2="1035" y2="650" stroke="#6AB0D4" stroke-width="1.5" stroke-dasharray="4,4"/>
  <circle cx="1035" cy="650" r="4" fill="none" stroke="#6AB0D4" stroke-width="1.5"/>

  <!-- fact_account_balance → dim_currency -->
  <line x1="880" y1="488" x2="250" y2="598" stroke="#6AB0D4" stroke-width="1.5" stroke-dasharray="4,4"/>
  <circle cx="250" cy="598" r="4" fill="none" stroke="#6AB0D4" stroke-width="1.5"/>

  <!-- ============================================================
       LEGEND
       ============================================================ -->
  <rect x="60" y="870" width="1290" height="100" rx="8" fill="#061525" stroke="#1E3A5F" stroke-width="1"/>
  <text x="700" y="892" text-anchor="middle" fill="#C9A84C" font-size="12" font-weight="bold">Schema Legend</text>

  <!-- Fact table swatch -->
  <rect x="80" y="904" width="22" height="14" rx="3" fill="#0D1F3C" stroke="#C9A84C" stroke-width="2"/>
  <text x="110" y="915" fill="#A0C4E8" font-size="10">FACT Table (central, gold border)</text>

  <!-- Dim table swatch -->
  <rect x="320" y="904" width="22" height="14" rx="3" fill="#0A1E38" stroke="#4A90C4" stroke-width="1.8"/>
  <text x="350" y="915" fill="#A0C4E8" font-size="10">DIMENSION Table (blue border)</text>

  <!-- PK label -->
  <text x="570" y="915" fill="#FFD700" font-size="10" font-weight="bold">PK</text>
  <text x="588" y="915" fill="#A0C4E8" font-size="10">= Primary / Surrogate Key</text>

  <!-- FK label -->
  <text x="790" y="915" fill="#7EB8F7" font-size="10" font-weight="bold">FK</text>
  <text x="808" y="915" fill="#A0C4E8" font-size="10">= Foreign Key reference</text>

  <!-- Relationship line -->
  <line x1="980" y1="910" x2="1040" y2="910" stroke="#4A90C4" stroke-width="1.5" stroke-dasharray="5,3"/>
  <circle cx="1040" cy="910" r="4" fill="none" stroke="#4A90C4" stroke-width="1.5"/>
  <text x="1050" y="914" fill="#A0C4E8" font-size="10">Many-to-One (FK → PK)</text>

  <!-- SCD2 note -->
  <text x="700" y="940" text-anchor="middle" fill="#7EB8F7" font-size="10">SCD Type 2 dimensions maintain full history with scd2_effective_date, scd2_expiry_date, and is_current_flag columns</text>
  <text x="700" y="956" text-anchor="middle" fill="#5A8AAE" font-size="10">All surrogate keys (_sk) are BIGINT generated by Databricks Delta · Business keys (BK) are the natural source-system identifiers</text>

  <!-- Footer -->
  <text x="700" y="988" text-anchor="middle" fill="#2A4A6A" font-size="10">Prime Capital Bank — Gold Star Schema ERD · Azure Databricks Unity Catalog · Confidential © 2025</text>
</svg>
